# xmcd CD database file
#
# Track frame offsets:
#	150
#	34430
#	76299
#	78600
#	109481
#	143238
#	179665
#	224551
#	277924
#	280818
#
# Disc length: 4773 seconds
#
# Revision: 3
# Processed by: cddbd v1.4PL0 Copyright (c) Steve Scherf et al.
# Submitted via: CDex 1.50Beta7
#
DISCID=9c12a30a
DTITLE=Andreas Gundlach Trio - Andreas Gundlach Trio and Adam Rogers
DYEAR=2001
DGENRE=Jazz
TTITLE0=3 - 6 - 3
TTITLE1=Gentalo
TTITLE2=Jam
TTITLE3=I'll Find Your Love
TTITLE4=Bilie's Bounce
TTITLE5=Cloud Nine
TTITLE6=Groovlier
TTITLE7=Karussell
TTITLE8=Jam Again
TTITLE9=Gustave
EXTD=YEAR: 2001
EXTT0=
EXTT1=
EXTT2=
EXTT3=
EXTT4=
EXTT5=
EXTT6=
EXTT7=
EXTT8=
EXTT9=
PLAYORDER=
